<?xml version="1.0" encoding="UTF-8"?>
<svg id="Logo_4" data-name="Logo 4" xmlns="http://www.w3.org/2000/svg" viewBox="0 0 782.84 727.19">
  <defs>
    <style>
      .cls-1 {
        font-family: BrushScriptMT, 'Brush Script MT';
        font-size: 350px;
      }

      .cls-2 {
        font-family: PTSerif-Regular, 'PTSerif Regular';
        font-size: 56px;
      }
    </style>
  </defs>
  <g id="Illustration">
    <path d="M237.34,210.56c.84-2.37,1.27-2.94,3.23-4.35,3.98-2.85,4.24-2.27,8.87-4.4,3.68-1.69,6.19-3.16,10.61-5.77,7.88-3.83,9.82-4.47,15.21-7.79,2.26-1.39,4.61-2.67,7.01-3.8,7.96-3.75,11.68-6.02,20.04-9.03,7.04-3.43,11.78-4.5,19.22-7.19,7.53-2.73,9.64-2.3,17.56-4.05,7.28-1.61,17.03-2.34,24.5-3,6.25-.55,9.14-1.21,15.45-1.18,3.32,.02,8.14,.19,11.15,1.04,7.58,.44,12.66,2.55,19.3-.27,4.39-1.86,9.37-2.74,14.12-3.94,5.8-1.47,7.28-6.14,3.17-9.81-3.97-3.55-8.73-6.81-11.34-11.01-4.39-7.09-3.54-15.21-3.26-23.09,.13-3.71,.73-6.62,.97-10.32,.09-1.42,0-6,1.16-6.27,1.39-.32,4.16,2.18,4.97,3.3,4.9,6.7,9.03,13.82,14.19,20.36,5.57,7.06,7.22,14.13,2.84,22.07-.64,1.15-.96,2.47-1.14,3.74-.1,.71,0,3.29,.21,4.03,.45-.17,1.57-2.07,1.72-2.36,1.67-3.19,5.66-4.95,5.74-9.39,.08-4.76,2.21-9.73,4.48-14.24,5.34-10.61,13.35-19.58,25.26-25.64,3.7-1.88,10.74-4.41,14.69-5.85,.5-.18-.36,2.4-.49,2.97-.63,2.82-2.01,5.52-2.72,8.33-1.92,7.6-5.75,14.49-10.07,21.34-4.34,6.88-9.07,13.35-18.23,15.8-8.27,2.21-12.05,8.2-17.39,12.94,0,0-.02-.02-.02-.02,.82-.36,1.72-.64,2.46-1.09,6.7-4.13,14.31-5.47,22.3-5.14,7.18,.29,14.32,1.23,21.5,1.44,4.69,.13,9.45-.34,14.12-.93,1.67-.21,3.53-1.3,4.66-2.45,2.14-2.16,3.69-4.73,5.73-6.98,1.28-1.41,2.81-2.77,4.54-3.76,2.05-1.17,4.41-2.62,6.67-2.68,2.97-.08,4.81,4.1,3.59,8.03-.31,1.01-2.66,2.51,.26,3.52,1.61,.56,2.99,1.7,3.58,3.24,.82,2.15,.08,4.48-2.66,5.58-3.58,1.44-4.74,1.32-1.77,4.8,.84,2.96-1.62,5.14-5.03,4.72-5.36-.66-8.83-3.39-11.72-6.99-.67-.83-2.04-1.77-3.09-1.76-6.9,.09-13.82,.69-20.71,.6-8.05-.11-16.09-.82-24.14-1.09-1.55-.05-5.99,.15-7.57,.55-7.67,1.97-6.87,4.2-14.53,6.19-.44,.11-6.42,.86-6.8,1.14,.41,.12,.82,.3,1.24,.34,4.05,.39,8.38,.13,12.12,1.25,11.64,3.49,23.08,7.47,34.56,11.33,11.67,3.93,23.15,8.29,35,11.79,5.66,1.67,10.95,5.26,17.89,3.31,5.41-1.52,11.09-2.31,16.62-3.52,.44-.09,1.09-1.01,.95-1.3-4.44-9.29-.59-20.03,8.55-26.66,6.06-4.4,6.35-4.33,7.79,2.03,.01,.06,.02,.11,.04,.17,1.78,7.94,.71,15.36-5.76,21.84-.28,.28-1.12,1.26-1.26,1.64,.48,.01,1.87-.33,2.24-.49,7.9-3.47,15.64-2.69,22.87,.91,3.45,1.72,6.27,4.37,9.28,6.68,.75,.58,1.25,1.38,1.82,2.12,.11,.15,.04,.35-.14,.39-1.36,.32-2.72,.79-4.09,.82-2.7,.05-5.42-.36-8.12-.29-3.18,.08-10.35,1.02-14.63,.69-6.57-.42-10.83-.18-17.65-4.39-.36-.22-1.06-.23-1.54-.13-4.88,1.04-9.79,2.03-14.62,3.23-2.09,.52-3.21,1.73-1.23,3.41,3.15,2.69,6.21,5.47,9.57,7.96,4.24,3.14,8.71,6.05,13.13,9.01,3.16,2.12,6.34,4.23,9.63,6.22,.62,.37,2.35-.51,2.96-.84,4.86-2.65,9.74-3.18,15.07-2.23,0,0,3.89,.43,8.91,1.92,2.71,.8,4.95,2,5.12,2.91,.05,.26,.17,1.38-.42,2.26-.75,1.12-1.18,1.78-2.23,2.63-.15,.12-.4,.25-1.25,.59-1.09,.44-2.25,.71-3.42,.88-.44,.06-.89,.17-1.25,.39-.66,.4-.58,1.33-.49,1.57,.36,.92,.84,1.46,1.85,2.43,1.45,1.54,1.66,2.07,1.66,2.07,1.1,1.21,.42,2.63,.12,3.31-.28,.66-3.16,1.84-4.51,1.94-2.37,.22-3.17,.22-7.52-.4-2.33-.34-2.06,.77-1.98,1,1.32,3.66,1.17,4.01,.84,7.85,.04,.52-1.05,3.61-3.46,4.05-1.23-.27-2.11-.12-4.1-1.64-1.65-1.75-2.66-3.93-4.94-3.39-.76,.18-1.43,.65-1.95,1.22-1.61,1.75-1.39,1.74-2.6,3.43-1.16,1.62-1.51,2.03-2.86,3.52-.54,.59-1.26,.86-2.19,.93-.39,.03-1.74-1.03-2.01-2.96-.7-2.6-1.55-5.35-2.06-7.98-.59-3.06-.79-4.03-.7-7.1,.06-2.09,1.47-4.56,2.19-6.68,.33-.97,.36-2.07,.22-3.08-.17-1.15-.5-2.91-.32-3.97,1-3.86-3.23-7.03-6.92-9.37-8.58-5.45-16.74-11.15-22.53-18.95-.6-.8-1.89-1.4-3.02-1.72-6.4-1.78-12.85-3.44-19.29-5.14-.52-.14-2.08-1.06-2.6-1.18,.14,.42,1.32,1.65,1.43,2.07,1.61,6.22,3.26,12.44,4.74,18.68-.94,1.8-8.7,1.22-5.95-2.22,.17-.21,.48-2.09,.36-2.4-1.61-3.89-2.14-6.98-4.24-10.67-1.92-3.36-3.97-7.35-7.39-9.26-5.77-3.22-12.61-5.16-19.12-7.38-7.01-2.4-13.98-5.21-21.31-6.56-8.49-1.55-15.47-2.84-24.18-3.58-.42-.04-4.62,.14-5.06,.21,.37,.28,2.54,1.76,2.97,1.97,5.4,2.59,10.83,5.13,16.21,7.75,1.4,.68,2.72,1.52,3.95,2.41,3.42,2.48,4.89,3.76,8.29,6.26,1.94,1.43,3.89,4.25,6.09,5.32,3.11,1.51,5.43,1.79,8.65,3.13,.82,.34,5.76,2.61,6.3,3.29,1.18,1.46,2.14,1.81,2.63,3.46,.42,1.42,.13,3.85-1,4.63-4.58,3.16-7.03,2.92-11.74-.21-1.03-.69-1.58-1.46-2.4,.53-.64,1.56-1.78,3.3-4.77,3.69-1.05,.33-3.99-1.12-4.22-2.1-1.43-2.18-1-5.49,.1-7.74,2.82-5.72,1.1-8.11-3.08-11.84-6.01-5.36-13.63-8.54-21.66-11.27-4.36-1.49-8.8-3.37-12.2-6.01-2.33-1.8-5.99-1.73-8.34-1.59-2.98,.18-7.11-.02-10.01-.41-6.25-.84-10.79-1.93-18.64-1.54-8.78,1.46-15.06,1.83-23.95,2.82-1.97,.22-4.92,.5-6.9,.83-5.34,.87-9.86,1.73-14.89,3.27-9.81,2.99-12.12,2.9-21.51,6.75-6.43,2.64-13.93,5.88-20.01,9.11-8.87,4.73-13.66,7.26-22.54,11.97-4.84,2.57-8.53,4.41-13.43,6.9-3.01,1.53-6.23,3.2-9.21,4.77-1.96,1.03-2.86,1.04-4.84,.25"/>
    <path d="M316.24,164.82c.48-4.48,2.23-10.12,3.42-14.5,2.45-9.05,9.26-13.68,18.03-17.56,1.98-.68,7.58-2.29,8.99-1.6,1.43,.7-.39,4.03-.63,5.66-.6,4.13-1.92,8.21-3.09,12.28-.37,1.29-1.13,2.51-1.77,3.74-3.48,4.51-6.32,6.52-8.52,7.98-2.05,1.42-5.09,2.78-8.54,4.25-.05,.02-4.96,1.65-5.01,1.66-3.86,.79-3.06-.36-2.89-1.92Z"/>
    <path d="M566.99,175.29c.6-1.45,1.11-2.19,1.76-3.63,2.15-4.81,7.86-10.73,12.69-13.16,5.46-2.75,11.37-4.9,17.25-6.95,1.2-.42,5.12-1.57,6.6-.86,.41,.2-1.37,3.89-1.75,4.45-2.26,3.3-4.2,6.92-7.22,9.66-3.69,3.35-7.95,6.59-12.69,8.69-4.69,2.08-10.24,2.74-15.94,4.13-.12,.03-1.82,.48-1.77,.37,.44-.94,.96-2.43,1.07-2.7Z"/>
    <path d="M306.91,201.99c-7.13-.8-13.08-3.44-17.66-8.05-.5-.51,.83-1.98,2.37-2.86,3.84-1.76,6.08-2.35,9.58-2.41,9.85-.19,16.27,3.63,23.4,8.7,1.2,.86,4.76,3.16,5.16,4.6,.07,.26-5.01,.41-5.85,.4-3.87-.03-7.49,.08-11.35-.1"/>
  </g>
  <text id="Text" class="cls-2" transform="translate(203.77 590.5) rotate(34.78)"><tspan x="0" y="0">S</tspan></text>
  <text class="cls-2" transform="translate(240.91 614.63) rotate(28.26)"><tspan x="0" y="0">i</tspan></text>
  <text class="cls-2" transform="translate(267.52 628.4) rotate(21.45)"><tspan x="0" y="0">n</tspan></text>
  <text class="cls-2" transform="translate(313.01 644.77) rotate(13.63)"><tspan x="0" y="0">c</tspan></text>
  <text class="cls-2" transform="translate(353.87 653.66) rotate(6.13)"><tspan x="0" y="0">e</tspan></text>
  <text class="cls-2" transform="translate(398.44 657.05) rotate(-.3)"><tspan x="0" y="0"> </tspan></text>
  <text class="cls-2" transform="translate(427.03 656.43) rotate(-6.8)"><tspan x="0" y="0">2</tspan></text>
  <text class="cls-2" transform="translate(472.64 649.75) rotate(-14.88)"><tspan x="0" y="0">0</tspan></text>
  <text class="cls-2" transform="translate(516.85 636.74) rotate(-22.91)"><tspan x="0" y="0">2</tspan></text>
  <text class="cls-2" transform="translate(558.77 617.71) rotate(-30.89)"><tspan x="0" y="0">2</tspan></text>
  <text id="Text-2" data-name="Text" class="cls-1" transform="translate(33.68 527.45) rotate(-6.78)"><tspan x="0" y="0">Chung</tspan></text>
</svg>